<svg xmlns="http://www.w3.org/2000/svg" xmlns:xlink="http://www.w3.org/1999/xlink" width="74" height="74" viewBox="0 0 74 74">
    <defs>
        <path id="a" d="M0 .436h49.797v27.27H0z"/>
        <path id="c" d="M0 .436h49.797v27.27H0z"/>
        <path id="e" d="M0 65.992h49.797V.44H0z"/>
    </defs>
    <g fill="none" fill-rule="evenodd">
        <path fill="#936BFB" d="M12 42.786l24.896-12.542 24.901 12.542-23.861 12.027c-.654.33-1.425.33-2.079 0L12 42.785z"/>
        <g transform="translate(12 42.35)">
            <mask id="b" fill="#fff">
                <use xlink:href="#a"/>
            </mask>
            <path fill="#1F1F1F" d="M24.896 12.987L0 .436l.082 14.74 24.833 12.53 24.873-12.53.009-14.74z" mask="url(#b)"/>
        </g>
        <path fill="#1F1F1F" d="M36.897 30.244L12 42.786l.082 14.74 24.833 12.53 24.873-12.53.009-14.74z"/>
        <path fill="#936BFB" d="M12 42.786l24.896-12.542 24.901 12.542-23.861 12.027c-.654.33-1.425.33-2.079 0L12 42.785z"/>
        <g transform="translate(12 42.35)">
            <mask id="d" fill="#fff">
                <use xlink:href="#c"/>
            </mask>
            <path fill="#6F41E8" d="M24.896 12.987L0 .436l.082 14.74 24.833 12.53 24.873-12.53.009-14.74z" mask="url(#d)"/>
        </g>
        <path fill="#1F1F1F" d="M17.452 42.796h6.286v-1.75h-6.286z"/>
        <g transform="translate(12 4.064)">
            <path fill="#1F1F1F" d="M11.739 38.775c0 .953-1.408 1.725-3.144 1.725-1.736 0-3.143-.772-3.143-1.725 0-.953 1.407-1.726 3.143-1.726 1.736 0 3.144.773 3.144 1.726"/>
            <path fill="#DB497B" d="M11.739 36.982c0 .953-1.408 1.725-3.144 1.725-1.736 0-3.143-.772-3.143-1.725 0-.953 1.407-1.725 3.143-1.725 1.736 0 3.144.772 3.144 1.725"/>
            <mask id="f" fill="#fff">
                <use xlink:href="#e"/>
            </mask>
            <path fill="#1F1F1F" d="M13.796 38.55h22.206v-2.62H13.794z" mask="url(#f)"/>
            <path fill="#1F1F1F" d="M36.002 38.55c0 3.365-4.971 6.093-11.104 6.093-6.132 0-11.103-2.728-11.103-6.094 0-3.365 4.971-6.094 11.103-6.094 6.133 0 11.104 2.729 11.104 6.094" mask="url(#f)"/>
            <path fill="#FFD654" d="M36.002 35.93c0 3.365-4.971 6.094-11.104 6.094-6.132 0-11.103-2.729-11.103-6.094 0-3.366 4.971-6.094 11.103-6.094 6.133 0 11.104 2.728 11.104 6.094" mask="url(#f)"/>
            <path fill="#1F1F1F" d="M17.048 34.415h15.701v-6.35H17.048z" mask="url(#f)"/>
            <path fill="#1F1F1F" d="M32.756 34.32c0 2.382-3.518 4.313-7.858 4.313s-7.857-1.93-7.857-4.312c0-2.382 3.518-4.313 7.857-4.313 4.34 0 7.858 1.93 7.858 4.313" mask="url(#f)"/>
            <path fill="#FFD654" d="M32.756 28.116c0 2.381-3.518 4.312-7.858 4.312s-7.857-1.93-7.857-4.312c0-2.382 3.518-4.313 7.857-4.313 4.34 0 7.858 1.93 7.858 4.313" mask="url(#f)"/>
            <path stroke="#3D3D3D" stroke-linecap="round" stroke-width="4" d="M24.898 9.05v17.664" mask="url(#f)"/>
            <path fill="#DB497B" d="M31.073 6.66c0 3.436-2.764 6.222-6.175 6.222-3.41 0-6.174-2.786-6.174-6.221 0-3.436 2.764-6.222 6.174-6.222 3.41 0 6.175 2.786 6.175 6.222" mask="url(#f)"/>
        </g>
    </g>
</svg>
